<?xml version="1.0" encoding="UTF-8" standalone="no"?>
<!-- Created with Inkscape (http://www.inkscape.org/) -->

<svg
   width="3.5in"
   height="3.7in"
   viewBox="0 0 88.900001 93.980002"
   version="1.1"
   id="svg1"
   inkscape:version="1.1.2 (0a00cf5339, 2022-02-04)"
   sodipodi:docname="Sequoia_fabrica_tree_embroidery_layers.svg"
   inkscape:label="Trunk"
   inkscape:export-filename="/home/jof/Downloads/Sequoia_fabrica_tree_embroidery_layers.png"
   inkscape:export-xdpi="350"
   inkscape:export-ydpi="350"
   xmlns:inkscape="http://www.inkscape.org/namespaces/inkscape"
   xmlns:sodipodi="http://sodipodi.sourceforge.net/DTD/sodipodi-0.dtd"
   xmlns:xlink="http://www.w3.org/1999/xlink"
   xmlns="http://www.w3.org/2000/svg"
   xmlns:svg="http://www.w3.org/2000/svg"
   xmlns:inkstitch="http://inkstitch.org/namespace">
  <metadata
     id="metadata201">
    <inkstitch:collapse_len_mm />
  </metadata>
  <sodipodi:namedview
     id="namedview1"
     pagecolor="#ffffff"
     bordercolor="#000000"
     borderopacity="0.25"
     inkscape:showpageshadow="2"
     inkscape:pageopacity="0.0"
     inkscape:pagecheckerboard="0"
     inkscape:deskcolor="#d1d1d1"
     inkscape:document-units="mm"
     inkscape:zoom="3.5488932"
     inkscape:cx="91.718736"
     inkscape:cy="210.20638"
     inkscape:window-width="3836"
     inkscape:window-height="2109"
     inkscape:window-x="3840"
     inkscape:window-y="24"
     inkscape:window-maximized="1"
     inkscape:current-layer="layer1"
     inkscape:pageshadow="2"
     showgrid="false"
     height="4.5in" />
  <defs
     id="defs1">
    <symbol
       id="inkstitch_trim">
      <title
         id="inkstitch_title9282">Trim the thread after sewing this object.</title>
      <path
         id="inkstitch_circle13405"
         d="m 9.2465284,-8.6e-6 c 1.8e-6,2.452339 -0.9741847,4.804237 -2.7082493,6.538304 C 4.8042146,8.2723614 2.4523174,9.2465504 -2.1625959e-5,9.2465514 -2.4523623,9.2465534 -4.8042621,8.2723654 -6.5383288,6.5382984 -8.2723956,4.8042314 -9.2465834,2.4523324 -9.2465816,-8.6e-6 c 6e-7,-2.452339 0.9741895,-4.804237 2.708256,-6.538301 1.7340665,-1.734065 4.0859648,-2.708252 6.538303974041,-2.70825 C 5.1067066,-9.2465576 9.2465271,-5.1067366 9.2465284,-8.6e-6 c 0,0 0,0 0,0"
         style="opacity:1;vector-effect:none;fill:#fafafa;fill-opacity:1;fill-rule:evenodd;stroke:#003399;stroke-width:1.065;stroke-linecap:round;stroke-linejoin:miter;stroke-miterlimit:4;stroke-dasharray:3.195, 3.195;stroke-dashoffset:0;stroke-opacity:1"
         inkscape:connector-curvature="0" />
      <path
         style="color:#000000;font-style:normal;font-variant:normal;font-weight:normal;font-stretch:normal;font-size:medium;line-height:normal;font-family:sans-serif;font-variant-ligatures:normal;font-variant-position:normal;font-variant-caps:normal;font-variant-numeric:normal;font-variant-alternates:normal;font-feature-settings:normal;text-indent:0;text-align:start;text-decoration:none;text-decoration-line:none;text-decoration-style:solid;text-decoration-color:#000000;letter-spacing:normal;word-spacing:normal;text-transform:none;writing-mode:lr-tb;direction:ltr;text-orientation:mixed;dominant-baseline:auto;baseline-shift:baseline;text-anchor:start;white-space:normal;shape-padding:0;clip-rule:nonzero;display:inline;overflow:visible;visibility:visible;opacity:1;isolation:auto;mix-blend-mode:normal;color-interpolation:sRGB;color-interpolation-filters:linearRGB;solid-color:#000000;solid-opacity:1;vector-effect:none;fill:#050505;fill-opacity:1;fill-rule:evenodd;stroke:none;stroke-width:1.41421;stroke-linecap:butt;stroke-linejoin:miter;stroke-miterlimit:4;stroke-dasharray:none;stroke-dashoffset:0;stroke-opacity:1;color-rendering:auto;image-rendering:auto;shape-rendering:auto;text-rendering:auto;enable-background:accumulate"
         d="m -3.0000256,-5.9834096 c -1.30575,0 -2.375,1.06924 -2.375,2.375 0,1.30575 1.06925,2.375 2.375,2.375 0.58687,0 1.11944,-0.22369 1.53516,-0.58007 0,0 0.61717997,1.62109 0.61717997,1.62109 0,0 -2.29881997,6.01758 -2.29881997,6.01758 0.98655,-0.12511 1.23728,-0.26171 1.67382,-0.97461 0,0 1.33007997,-3.18945 1.33007997,-3.18945 0,0 1.23633003,3.25 1.23633003,3.25 0.23227,0.77906 0.84315,0.79218 1.57813,1.07226 0,0 -2.05469003,-6.14258 -2.05469003,-6.14258 0,0 0.73047003,-1.75 0.73047003,-1.75 0.42849,0.41682 1.01136,0.67578 1.65234,0.67578 1.30575,0 2.375,-1.06925 2.375,-2.375 0,-1.30576 -1.06925,-2.375 -2.375,-2.375 -1.06233,0 -1.95701,0.71265 -2.25781003,1.67969 0,0 -0.0117,-0.0156 -0.0117,-0.0156 0,0 -0.80274,2.10156 -0.80274,2.10156 0,0 -0.59179,-1.76562 -0.59179,-1.76562 -0.18242,-1.12808 -1.15864997,-2 -2.33593997,-2 0,0 -2e-5,-3e-5 -2e-5,-3e-5 m 0,1 c 0.76531,0 1.375,0.60968 1.375,1.375 0,0.76531 -0.60969,1.375 -1.375,1.375 -0.76531,0 -1.375,-0.60969 -1.375,-1.375 0,-0.76532 0.60969,-1.375 1.375,-1.375 0,0 0,0 0,0 m 6,0 c 0.76531,0 1.375,0.60968 1.375,1.375 0,0.76531 -0.60969,1.375 -1.375,1.375 -0.76531,0 -1.375,-0.60969 -1.375,-1.375 0,-0.76532 0.60969,-1.375 1.375,-1.375 0,0 0,0 0,0"
         id="inkstitch_path13416"
         inkscape:connector-curvature="0" />
    </symbol>
    <symbol
       id="inkstitch_ignore_layer">
      <title
         id="title9694">Ignore entire layer when generating stitch plan</title>
      <path
         inkscape:connector-curvature="0"
         style="opacity:1;vector-effect:none;fill:#fafafa;fill-opacity:1;fill-rule:evenodd;stroke:#ff0000;stroke-width:1.06501;stroke-linecap:round;stroke-linejoin:miter;stroke-miterlimit:4;stroke-dasharray:3.19504, 3.19504;stroke-dashoffset:0;stroke-opacity:1"
         d="M 9.2465269,-4.9265995e-6 C 9.246525,5.1067241 5.1067028,9.2465451 -2.615882e-5,9.2465451 -5.1067554,9.2465451 -9.2465782,5.1067241 -9.2465801,-4.9265995e-6 -9.24658,-2.4523429 -8.2723922,-4.8042399 -6.538327,-6.5383059 c 1.7340653,-1.734065 4.0859624,-2.708252 6.53830084118,-2.708252 5.10673015882,0 9.24655285882,4.139823 9.24655305882,9.2465529734005 0,0 0,0 0,0"
         id="inkstitch_path25368-7" />
      <path
         sodipodi:nodetypes="ccccc"
         inkscape:connector-curvature="0"
         style="color:#000000;fill:#d5d5d5;fill-opacity:1;fill-rule:evenodd;stroke:#5a5a5a;stroke-width:0.6333;stroke-linecap:square;stroke-linejoin:round;stroke-miterlimit:0;stroke-opacity:1"
         d="M 4,4.452769 1.46667,1.286102 H -5.5 l 2.53333,3.166667 z"
         id="use5800" />
      <path
         sodipodi:nodetypes="ccccc"
         inkscape:connector-curvature="0"
         style="color:#000000;opacity:0.5;fill:#d5d5d5;fill-opacity:1;fill-rule:evenodd;stroke:#858585;stroke-width:0.633394;stroke-linecap:square;stroke-linejoin:round;stroke-miterlimit:0;stroke-opacity:1"
         d="M 4,2.552769 1.46667,-0.613898 H -5.5 l 2.53333,3.166667 z"
         id="use5864" />
      <g
         id="g5771">
        <path
           sodipodi:nodetypes="ccccccccc"
           inkscape:connector-curvature="0"
           style="fill:#aa0000;fill-rule:evenodd;stroke:#aa0000;stroke-width:1px"
           d="m -1.0666699,-5.0472339 h 4.4333333 l 0.6333333,0.6333333 V 0.01943274 L 3.3666634,0.65276607 H -1.0666699 L -1.7000032,0.01943274 V -4.4139006 Z"
           id="path8011" />
        <path
           inkscape:connector-curvature="0"
           id="path8023"
           d="m -0.43333658,-3.8755672 c 0,0 3.16666668,3.16666661 3.16666668,3.16666661"
           style="fill:none;stroke:#ffffff;stroke-width:1.7" />
        <path
           inkscape:connector-curvature="0"
           id="path8025"
           d="m 2.7333301,-3.8755672 c 0,0 -3.16666668,3.16666661 -3.16666668,3.16666661"
           style="fill:none;stroke:#ffffff;stroke-width:1.8;stroke-linejoin:round" />
      </g>
    </symbol>
  </defs>
  <g
     id="layer3"
     inkscape:label="SF"
     transform="translate(0, 1.05833)">
    <path
       class="st2"
       d="m 30.58209,60.786809 c 0,0 0.304403,0.608598 0.710034,0.608598 1.318603,0 4.057305,0 4.057305,0 0,0 0.912878,-0.304049 0.811477,-1.521445 0,-1.217197 -0.101603,-8.419033 -7.303169,-8.216127 -7.201764,0.202707 -6.897445,6.288869 -6.897445,7.810335 0,1.521545 0.811473,4.463053 3.347265,6.085962 2.231551,1.420102 5.984567,3.854515 5.375974,5.578807 -0.40575,1.217217 -1.521513,1.521566 -2.332985,1.420103 -1.014322,-0.101443 -1.217198,-0.507495 -1.3186,-1.115754 -0.101602,-0.608598 -0.101602,-1.622948 -0.101602,-1.622948 0,0 -0.2028,-0.405393 -0.507136,-0.405393 -0.304401,0 -4.767373,0 -4.767373,0 0,0 -0.709997,0.202686 -0.709997,0.608598 0,0.405393 0,2.028661 0,2.028661 0,0 0.2028,0.405393 0.507131,0.507435 0.405701,0.101443 0.710002,0.101443 0.710002,0.811464 0,0.710001 0.912907,5.274518 6.086006,5.173055 5.173055,-0.101243 6.897409,-3.245857 7.201726,-5.071612 0.304401,-1.825855 0.304401,-4.868806 -1.014349,-6.491714 -1.318639,-1.622909 -3.651585,-3.144415 -4.463022,-3.550167 -0.811478,-0.405393 -2.941587,-2.637199 -2.840148,-4.564497 0.202802,-1.927217 1.62295,-2.130024 2.637268,-2.028561 0.912878,0 1.318634,0.811445 1.318634,1.217197 0,0.405413 -0.405752,0.202706 -0.507137,0.304049 -0.101603,0.202707 0,2.434413 0,2.434413 z"
       id="path14"
       style="fill:#010202;stroke-width:1.01433"
       inkscape:label="S"
       inkstitch:angle="20" />
    <g
       id="command_group4"
       inkscape:label="Ink/Stitch Command: Trim thread after sewing this object"
       transform="matrix(0.264583 0 0 0.264583 2.93562 7.03452)">
      <path
         id="command_connector4"
         d="m 64.526796,154.77709 11.89406,23.80599"
         style="fill:none;stroke:#000000;stroke-width:1px;stroke-opacity:0.5"
         inkscape:connection-start="#command_use2810"
         inkscape:connection-end="#path14"
         inkscape:connector-type="polyline"
         inkscape:label="connector"
         inkscape:connector-curvature="0" />
      <use
         id="command_use2810"
         xlink:href="#inkstitch_trim"
         height="100%"
         width="100%"
         x="64.524216"
         y="154.74124"
         inkscape:label="command marker" />
    </g>
    <path
       class="st2"
       d="m 55.234222,51.565839 c 0,0 -2.287001,-0.207719 -3.326593,1.039531 -1.039531,1.143511 -0.935572,2.287001 -0.935572,3.326593 0,1.039551 0,19.23166 0,19.23166 0,0 0,0.312077 -0.415936,0.312077 -0.415937,0 -0.519796,0 -0.519796,0.415937 0,0.415936 0,2.183042 0,2.183042 0,0 -0.104438,0.415936 0.519796,0.519755 0.623695,0.10384 6.341187,0 6.341187,0 0,0 0.415937,-0.207718 0.415937,-0.519755 0,-0.312078 0,-2.079083 0,-2.079083 0,0 -0.104439,-0.519796 -0.519736,-0.519796 -0.415937,0 -0.831673,0 -0.831673,0 v -7.17286 c 0,0 0.104438,-0.623755 0.519795,-0.623755 0.415937,0 4.054247,0 4.054247,0 0,0 1.247449,0.104438 1.247449,-0.831673 0,-0.935592 0,-2.079023 0,-2.079023 0,0 -0.207698,-1.143551 -1.455367,-1.143551 -1.24745,0 -3.534451,0 -3.534451,0 0,0 -0.727714,-0.207718 -0.727714,-1.14351 0,-0.312077 0,-4.88586 0,-4.88586 0,0 0.312077,-0.727713 1.039531,-0.727713 0.831673,0.103839 5.197797,0.103839 5.197797,0.103839 0,0 0.415937,0 0.415937,0.415936 0,0.415937 0,0.623695 0,0.623695 0,0 -0.10384,0.415936 0.207718,0.415936 0.312077,0 2.286961,0 2.286961,0 0,0 0.623755,0 0.623755,-0.519735 0,-0.519796 0,-4.574062 0,-4.574062 0,0 -0.207719,-0.623695 -1.24747,-0.831613 -1.247449,-0.312078 -9.355962,-0.935573 -9.355962,-0.935573 z"
       id="path24"
       style="fill:#010202;stroke-width:1.03955"
       inkscape:label="F"
       inkstitch:angle="340" />
    <g
       id="command_group5"
       inkscape:label="Ink/Stitch Command: Trim thread after sewing this object"
       transform="matrix(0.264583 0 0 0.264583 -1.83916 2.49112)">
      <path
         id="command_connector5"
         d="m 239.52718,153.8169 -5.46038,33.21107"
         style="fill:none;stroke:#000000;stroke-width:1px;stroke-opacity:0.5"
         inkscape:connection-start="#command_use8601"
         inkscape:connection-end="#path24"
         inkscape:connector-type="polyline"
         inkscape:label="connector"
         inkscape:connector-curvature="0" />
      <use
         id="command_use8601"
         xlink:href="#inkstitch_trim"
         height="100%"
         width="100%"
         x="239.5246"
         y="153.78105"
         inkscape:label="command marker" />
    </g>
  </g>
  <g
     id="layer2"
     inkscape:label="Branches"
     inkscape:groupmode="layer"
     style="display:inline">
    <path
       id="path7"
       style="fill:none;stroke:#ad6b21;stroke-width:1px"
       transform="scale(0.264583, 0.264583)"
       d="M 167.53548,98.653091 H 156.2465 m -18.16945,34.380129 26.59182,-29.10047 0.2227,-0.26758 0.19702,-0.28702 0.16965,-0.304 0.14083,-0.31838 0.1108,-0.33003 0.0798,-0.33885 0.0482,-0.34479 0.0161,-0.34776 V 85.338908 m -33.13268,42.617502 25.6067,-28.022424 V 85.338908"
       inkstitch:satin_column="true"
       inkscape:label="branch_middle" />
    <g
       id="command_group15"
       inkscape:label="Ink/Stitch Command: Trim thread after sewing this object"
       transform="matrix(0.264583 0 0 0.264583 8.8343 15.8089)">
      <path
         id="command_connector15"
         d="M 149.46517,56.655598 124.71284,51.368486"
         style="fill:none;stroke:#000000;stroke-width:1px;stroke-opacity:0.5"
         inkscape:connection-start="#command_use822"
         inkscape:connection-end="#path7"
         inkscape:connector-type="polyline"
         inkscape:label="connector"
         inkscape:connector-curvature="0" />
      <use
         id="command_use822"
         xlink:href="#inkstitch_trim"
         height="100%"
         width="100%"
         x="149.46259"
         y="56.619751"
         inkscape:label="command marker" />
    </g>
    <g
       id="g4995"
       inkscape:label="pad_center">
      <path
         id="path15"
         style="fill:none;stroke:#ad6b21;stroke-width:1px"
         transform="scale(0.264583, 0.264583)"
         d="m 166.17425,74.432641 -0.11918,1.204545 -0.24039,0.791097 -0.38941,0.729375 -0.53141,0.64811 -0.64811,0.531409 -0.72937,0.389404 -0.7911,0.240395 -0.83055,0.08217 -0.8673,-0.08743 -0.79149,-0.245693 -0.71857,-0.390026 -0.62956,-0.519434 -0.51944,-0.629558 -0.39002,-0.718569 -0.24569,-0.791494 -0.0871,-0.863803 0.12504,-1.240437 m 15.89305,1.610937 -0.15568,1.573444 -0.0544,0.365337 -0.0899,0.358248 -0.4554,1.498632 -0.12388,0.345951 -0.15702,0.332219 -0.73768,1.381708 -0.18974,0.3169 -0.21989,0.296772 -1.00252,1.222673 -0.24905,0.274911 -0.27491,0.249054 -1.22268,1.002514 -0.29677,0.219892 -0.3169,0.189738 -1.38171,0.737678 -0.33222,0.157029 -0.34595,0.123878 -1.49863,0.455398 -0.35825,0.08992 -0.36533,0.05436 -1.57345,0.155675 -0.37398,0.01828 -0.37395,-0.01897 -1.61786,-0.163095 -0.37285,-0.05658 -0.36531,-0.09361 -1.50688,-0.467763 -0.3468,-0.126614 -0.33272,-0.159989 -1.36362,-0.74015 -0.30962,-0.187883 -0.29012,-0.216776 -1.18808,-0.980256 -0.266,-0.241727 -0.24173,-0.266003 -0.98025,-1.188081 -0.21678,-0.290118 -0.18788,-0.309615 -0.74015,-1.363624 -0.15999,-0.332719 -0.12662,-0.346796 -0.46776,-1.506886 -0.0936,-0.36531 -0.0566,-0.372846 -0.1631,-1.617866 -0.019,-0.377429 0.019,-0.37743 0.1631,-1.617866 m 13.99291,1.706315 11.23413,1.1115 m -12.44254,1.207937 5.31676,9.958568 m -7.65143,-9.947443 -5.3853,9.921669 m 4.26862,-12.748252 -11.23205,-1.132288"
         inkstitch:satin_column="true" />
      <path
         id="path16"
         style="fill:none;stroke:#ad6b21;stroke-width:1px"
         transform="scale(0.264583, 0.264583)"
         d="m 157.62043,74.300861 0.35792,-1.153018 0.39002,-0.718568 0.51944,-0.629559 0.62956,-0.519433 0.71857,-0.390027 0.79149,-0.245693 0.8673,-0.08743 0.83055,0.08217 0.7911,0.240395 0.72937,0.389405 0.64811,0.531409 0.53141,0.64811 0.38941,0.729374 0.24039,0.791097 0.0824,0.832958 0.0368,0.371588 0.0462,-0.0046 -0.0181,-0.365926 m -15.76964,-2.733452 0.46776,-1.506885 0.12662,-0.346796 0.15999,-0.33272 0.74015,-1.363624 0.18788,-0.309614 0.21678,-0.290119 0.98025,-1.188081 0.24173,-0.266003 0.266,-0.241726 1.18808,-0.980257 0.29012,-0.216776 0.30962,-0.187882 1.36362,-0.740151 0.33272,-0.159988 0.3468,-0.126615 1.50688,-0.467763 0.36531,-0.09361 0.37285,-0.05658 1.61786,-0.163095 0.37395,-0.01897 0.37398,0.01828 1.57345,0.155675 0.36533,0.05436 0.35825,0.08992 1.49863,0.455398 0.34595,0.123877 0.33222,0.15703 1.38171,0.737677 0.3169,0.189738 0.29677,0.219893 1.22268,1.002513 0.27491,0.249054 0.24905,0.274912 1.00252,1.222672 0.21989,0.296772 0.18974,0.3169 0.73768,1.381709 0.15702,0.332219 0.12388,0.34595 0.4554,1.498632 0.0899,0.358248 0.0544,0.365337 0.15568,1.573445 0.0183,0.3705 M 159.557,74.408708 148.77552,71.06195 m 12.3504,1.522076 -3.34676,-10.781477 m 5.61291,11.199677 7.15778,-8.729676"
         inkstitch:satin_column="true" />
      <g
         id="command_group17"
         inkscape:label="Ink/Stitch Command: Trim thread after sewing this object"
         transform="scale(0.264583, 0.264583)">
        <path
           id="command_connector17"
           d="M 184.06425,43.449879 165.85923,63.725838"
           style="fill:none;stroke:#000000;stroke-width:1px;stroke-opacity:0.5"
           inkscape:connection-start="#command_use5051"
           inkscape:connection-end="#path16"
           inkscape:connector-type="polyline"
           inkscape:label="connector"
           inkscape:connector-curvature="0" />
        <use
           id="command_use5051"
           xlink:href="#inkstitch_trim"
           height="100%"
           width="100%"
           x="161.87122"
           y="32.119156"
           inkscape:label="command marker"
           transform="translate(22.190458,11.294876)" />
      </g>
    </g>
    <path
       id="path8"
       style="fill:none;stroke:#ad6b21;stroke-width:1px"
       transform="scale(0.264583, 0.264583)"
       d="M 127.39688,178.39934 H 116.1079 m 39.43387,31.74012 -30.02646,-30.51075 v -13.00916 m 24.66238,48.79884 -31.10741,-31.60914 -0.24343,-0.27267 -0.21583,-0.295 -0.18619,-0.31455 -0.15479,-0.33113 -0.12194,-0.34458 -0.0879,-0.35479 -0.0531,-0.36165 -0.0177,-0.3651 v -14.55023"
       inkstitch:satin_column="true"
       inkscape:label="branch_left" />
    <g
       id="command_group18"
       inkscape:label="Ink/Stitch Command: Trim thread after sewing this object"
       transform="matrix(0.264583 0 0 0.264583 -1.43208 25.1872)">
      <path
         id="command_connector18"
         d="m 104.22659,66.072534 19.1754,15.430419"
         style="fill:none;stroke:#000000;stroke-width:1px;stroke-opacity:0.5"
         inkscape:connection-start="#command_use4725"
         inkscape:connection-end="#path8"
         inkscape:connector-type="polyline"
         inkscape:label="connector"
         inkscape:connector-curvature="0" />
      <use
         id="command_use4725"
         xlink:href="#inkstitch_trim"
         height="100%"
         width="100%"
         x="132.28407"
         y="137.42529"
         inkscape:label="command marker"
         transform="translate(-28.06006,-71.388606)" />
    </g>
    <g
       id="g4991"
       inkscape:label="pad_left">
      <path
         id="path10"
         style="fill:none;stroke:#ad6b21;stroke-width:1px"
         transform="scale(0.264583, 0.264583)"
         d="m 126.03631,155.70651 -0.12512,1.24123 -0.2457,0.79149 -0.39002,0.71857 -0.51944,0.62956 -0.62956,0.51943 -0.71857,0.39003 -0.79149,0.24569 -0.8638,0.0871 -0.86381,-0.0871 -0.79149,-0.24569 -0.71857,-0.39003 -0.62956,-0.51943 -0.51943,-0.62956 -0.39003,-0.71857 -0.24569,-0.79149 -0.0871,-0.8638 0.12505,-1.24044 m 15.89235,1.61786 -0.1631,1.61787 -0.0566,0.37285 -0.0936,0.36531 -0.46776,1.50688 -0.12662,0.3468 -0.15999,0.33272 -0.74015,1.36362 -0.18788,0.30962 -0.21678,0.29011 -0.98025,1.18809 -0.24173,0.266 -0.266,0.24173 -1.18808,0.98025 -0.29012,0.21678 -0.30962,0.18788 -1.36362,0.74015 -0.33272,0.15999 -0.3468,0.12661 -1.50688,0.46777 -0.36531,0.0936 -0.37285,0.0566 -1.61786,0.16309 -0.37743,0.019 -0.37743,-0.019 -1.61787,-0.16309 -0.37284,-0.0566 -0.36531,-0.0936 -1.50689,-0.46777 -0.3468,-0.12661 -0.33272,-0.15999 -1.36362,-0.74015 -0.30961,-0.18788 -0.29012,-0.21678 -1.18808,-0.98025 -0.26601,-0.24173 -0.24172,-0.266 -0.98026,-1.18809 -0.21677,-0.29011 -0.18789,-0.30962 -0.74015,-1.36362 -0.15999,-0.33272 -0.12661,-0.3468 -0.46776,-1.50688 -0.0936,-0.36531 -0.0566,-0.37285 -0.16309,-1.61787 -0.019,-0.37742 0.019,-0.37743 0.16309,-1.61787 m 13.99345,1.69589 11.23205,1.13229 m -12.47402,1.21737 5.3853,9.92167 m -7.68638,-9.93003 -5.3853,9.92166 m 4.26806,-12.74854 -11.23205,-1.13229"
         inkstitch:satin_column="true"
         inkscape:label="pad_left_bottom" />
      <path
         id="path11"
         style="fill:none;stroke:#ad6b21;stroke-width:1px"
         transform="scale(0.264583, 0.264583)"
         d="m 117.48181,155.58166 0.35791,-1.15302 0.39003,-0.71857 0.51943,-0.62956 0.62956,-0.51943 0.71857,-0.39003 0.79149,-0.24569 0.86381,-0.0871 0.8638,0.0871 0.79149,0.24569 0.71857,0.39003 0.62956,0.51943 0.51944,0.62956 0.39002,0.71857 0.2457,0.79149 0.087,0.86268 0.0382,0.37855 0.0462,-0.005 -0.0187,-0.37276 m -15.76963,-2.73346 0.46776,-1.50688 0.12661,-0.3468 0.15999,-0.33272 0.74015,-1.36362 0.18789,-0.30962 0.21677,-0.29011 0.98026,-1.18809 0.24172,-0.266 0.26601,-0.24173 1.18808,-0.98025 0.29012,-0.21678 0.30961,-0.18788 1.36362,-0.74015 0.33272,-0.15999 0.3468,-0.12661 1.50689,-0.46777 0.36531,-0.0936 0.37284,-0.0566 1.61787,-0.16309 0.37743,-0.019 0.37743,0.019 1.61786,0.16309 0.37285,0.0566 0.36531,0.0936 1.50688,0.46777 0.3468,0.12661 0.33272,0.15999 1.36362,0.74015 0.30962,0.18788 0.29012,0.21678 1.18808,0.98025 0.266,0.24173 0.24173,0.266 0.98025,1.18809 0.21678,0.29011 0.18788,0.30962 0.74015,1.36362 0.15999,0.33272 0.12662,0.3468 0.46776,1.50688 0.0936,0.36531 0.0566,0.37285 0.1631,1.61787 0.019,0.37743 m -14.12493,-0.39445 -10.78147,-3.34675 m 12.35097,1.52192 -3.34676,-10.78147 m 5.60073,11.18725 7.1845,-8.70769"
         inkstitch:satin_column="true"
         inkscape:label="pad_left_top" />
      <g
         id="command_group20"
         inkscape:label="Ink/Stitch Command: Trim thread after sewing this object"
         transform="matrix(0.264583 0 0 0.264583 4.54301 -9.06522)">
        <path
           id="command_connector20"
           d="m 82.672012,163.98594 16.71892,15.80321"
           style="fill:none;stroke:#000000;stroke-width:1px;stroke-opacity:0.5"
           inkscape:connection-start="#command_use6688"
           inkscape:connection-end="#path11"
           inkscape:connector-type="polyline"
           inkscape:label="connector"
           inkscape:connector-curvature="0" />
        <use
           id="command_use6688"
           xlink:href="#inkstitch_trim"
           height="100%"
           width="100%"
           x="111.00205"
           y="113.85104"
           inkscape:label="command marker"
           transform="translate(-28.33262,50.099052)" />
      </g>
    </g>
    <path
       id="path5"
       style="fill:none;stroke:#ad6b21;stroke-width:1px"
       transform="scale(0.264583, 0.264583)"
       d="m 208.17629,109.17189 h -11.28898 m 9.40748,38.38243 V 70.789456 m -7.52598,76.764864 V 70.789456"
       inkstitch:satin_column="true"
       inkscape:label="branch_right" />
    <g
       id="command_group9"
       inkscape:label="Ink/Stitch Command: Trim thread after sewing this object"
       transform="matrix(0.264583 0 0 0.264583 6.7627 9.31261)">
      <path
         id="command_connector9"
         d="M 200.55754,40.912979 180.73495,68.699726"
         style="fill:none;stroke:#000000;stroke-width:1px;stroke-opacity:0.5"
         inkscape:connection-start="#command_use325"
         inkscape:connection-end="#path5"
         inkscape:connector-type="polyline"
         inkscape:label="connector"
         inkscape:connector-curvature="0" />
      <use
         id="command_use325"
         xlink:href="#inkstitch_trim"
         height="100%"
         width="100%"
         x="200.55496"
         y="40.877132"
         inkscape:label="command marker" />
    </g>
    <g
       id="g4999"
       inkscape:label="pad_right_left">
      <path
         id="path17"
         style="fill:none;stroke:#ad6b21;stroke-width:1px"
         transform="scale(0.264583, 0.264583)"
         d="m 206.81551,60.377225 -0.12513,1.241233 -0.24569,0.791493 -0.39003,0.718569 -0.51943,0.629559 -0.62956,0.519433 -0.71857,0.390026 -0.79149,0.245694 -0.86731,0.08743 -0.83055,-0.08217 -0.79109,-0.240395 -0.72938,-0.389405 -0.64811,-0.531409 -0.53141,-0.64811 -0.3894,-0.729375 -0.2404,-0.791096 -0.0825,-0.834046 0.11902,-1.202945 m 15.89908,1.580374 -0.1631,1.617866 -0.0566,0.372846 -0.0936,0.365311 -0.46776,1.506885 -0.12661,0.346796 -0.15999,0.33272 -0.74015,1.363624 -0.18789,0.309614 -0.21677,0.290119 -0.98026,1.188081 -0.24172,0.266002 -0.26601,0.241727 -1.18808,0.980256 -0.29012,0.216777 -0.30961,0.187882 -1.36363,0.740151 -0.33272,0.159988 -0.34679,0.126614 -1.50689,0.467764 -0.36531,0.09361 -0.37284,0.05658 -1.61787,0.163095 -0.37395,0.01897 -0.37398,-0.01828 -1.57344,-0.155675 -0.36534,-0.05436 -0.35825,-0.08992 -1.49863,-0.455398 -0.34595,-0.123878 -0.33222,-0.157029 -1.38171,-0.737677 -0.3169,-0.189739 -0.29677,-0.219892 -1.22267,-1.002514 -0.27491,-0.249054 -0.24906,-0.274911 -1.00251,-1.222672 -0.21989,-0.296772 -0.18974,-0.316901 -0.73768,-1.381708 -0.15703,-0.332219 -0.12388,-0.345951 -0.4554,-1.498632 -0.0899,-0.358247 -0.0544,-0.365338 -0.15567,-1.573444 -0.0183,-0.3705 0.0183,-0.3705 0.15567,-1.573444 m 14.00162,1.644072 11.23205,1.132289 m -12.46096,1.210717 5.38531,9.921669 m -7.70809,-9.929531 -5.31676,9.958569 m 4.20226,-12.745214 -11.23413,-1.1115"
         inkstitch:satin_column="true" />
      <path
         id="path18"
         style="fill:none;stroke:#ad6b21;stroke-width:1px"
         transform="scale(0.264583, 0.264583)"
         d="m 198.26018,60.275294 0.34818,-1.145782 0.3894,-0.729375 0.53141,-0.64811 0.64811,-0.531409 0.72938,-0.389405 0.79109,-0.240395 0.83055,-0.08217 0.86731,0.08743 0.79149,0.245694 0.71857,0.390026 0.62956,0.519433 0.51943,0.629559 0.39003,0.718569 0.24569,0.791493 0.087,0.862727 0.0382,0.378506 0.0462,-0.0047 -0.0187,-0.37277 m -15.78367,-2.667529 0.4554,-1.498632 0.12388,-0.345951 0.15703,-0.332219 0.73768,-1.381708 0.18974,-0.3169 0.21989,-0.296773 1.00251,-1.222672 0.24906,-0.274911 0.27491,-0.249054 1.22267,-1.002514 0.29677,-0.219892 0.3169,-0.189739 1.38171,-0.737677 0.33222,-0.157029 0.34595,-0.123878 1.49863,-0.455398 0.35825,-0.08992 0.36534,-0.05436 1.57344,-0.155675 0.37398,-0.01828 0.37395,0.01897 1.61787,0.163095 0.37284,0.05658 0.36531,0.09361 1.50689,0.467764 0.34679,0.126614 0.33272,0.159988 1.36363,0.740151 0.30961,0.187882 0.29012,0.216777 1.18808,0.980256 0.26601,0.241727 0.24172,0.266002 0.98026,1.188081 0.21677,0.290119 0.18789,0.309615 0.74015,1.363623 0.15999,0.33272 0.12661,0.346796 0.46776,1.506885 0.0936,0.365311 0.0566,0.372846 0.1631,1.617866 0.019,0.377429 m -14.12489,-0.383926 -10.80129,-3.282254 m 12.31193,1.465597 -3.28225,-10.80129 m 5.58503,11.180127 7.1845,-8.707693"
         inkstitch:satin_column="true" />
      <g
         id="command_group11"
         inkscape:label="Ink/Stitch Command: Trim thread after sewing this object"
         transform="scale(0.264583, 0.264583)">
        <path
           id="command_connector11"
           d="M 279.23822,25.735393 210.01494,51.656234"
           style="fill:none;stroke:#000000;stroke-width:1px;stroke-opacity:0.5"
           inkscape:connector-type="polyline"
           inkscape:label="connector"
           inkscape:connector-curvature="0"
           inkscape:connection-start="#command_use5407"
           inkscape:connection-end="#path18" />
        <use
           id="command_use5407"
           xlink:href="#inkstitch_trim"
           height="100%"
           width="100%"
           x="202.30025"
           y="18.035915"
           inkscape:label="command marker"
           transform="translate(76.935395,7.6636306)" />
      </g>
    </g>
  </g>
  <g
     inkscape:label="Trunk"
     id="layer1">
    <path
       id="path4"
       style="fill:none;stroke:#ad6b21;stroke-width:1px"
       transform="scale(0.264583)"
       d="M 179.20075,317.06306 V 174.28528 l 49.13771,-45.46386 3.34023,-3.0905 0.27052,-0.27747 0.24054,-0.30382 0.20802,-0.32695 0.17329,-0.34662 0.13673,-0.36259 0.0987,-0.37473 0.0597,-0.3829 0.02,-0.38701 v -9.53291 M 171.67476,317.06306 V 172.64034 l 0.0199,-0.38701 0.0597,-0.3829 0.0987,-0.37473 0.13673,-0.3626 0.1733,-0.34661 0.20802,-0.32695 0.24054,-0.30382 0.27052,-0.27747 49.26877,-45.58513 3.20917,-2.96923 v -7.88797 m -44.27788,68.82484 h -11.28898 m 17.4706,-12.87244 -7.66674,-8.28627 m 45.30239,-26.5355 -7.66673,-8.28627"
       inkstitch:satin_column="true"
       inkscape:label="trunk_right"
       sodipodi:nodetypes="cccccccccccccccccccccccccccccccc" />
    <g
       id="command_group6"
       inkscape:label="Ink/Stitch Command: Trim thread after sewing this object"
       transform="matrix(0.264583,0,0,0.264583,4.48811,15.8438)">
      <path
         id="command_connector6"
         d="m 191.03691,111.75119 -6.41015,43.61615"
         style="fill:none;stroke:#000000;stroke-width:1px;stroke-opacity:0.5"
         inkscape:connection-start="#command_use6792"
         inkscape:connection-end="#path4"
         inkscape:connector-type="polyline"
         inkscape:label="connector"
         inkscape:connector-curvature="0" />
      <use
         id="command_use6792"
         xlink:href="#inkstitch_trim"
         height="100%"
         width="100%"
         x="191.03433"
         y="111.71534"
         inkscape:label="command marker" />
    </g>
    <g
       id="g5003"
       inkscape:label="pad_right">
      <path
         id="path19"
         style="fill:none;stroke:#ad6b21;stroke-width:1px"
         transform="scale(0.264583)"
         d="m 233.40661,104.53681 -0.11918,1.20455 -0.2404,0.7911 -0.3894,0.72937 -0.53141,0.64811 -0.64811,0.53141 -0.72938,0.38941 -0.79109,0.24039 -0.83405,0.0825 -0.83405,-0.0825 -0.79109,-0.24039 -0.72938,-0.38941 -0.64811,-0.53141 -0.53141,-0.64811 -0.3894,-0.72937 -0.2404,-0.7911 -0.0822,-0.83055 0.1254,-1.24393 m 15.89304,1.61093 -0.15567,1.57345 -0.0544,0.36533 -0.0899,0.35825 -0.4554,1.49863 -0.12388,0.34595 -0.15703,0.33222 -0.73767,1.38171 -0.18974,0.3169 -0.2199,0.29677 -1.00251,1.22268 -0.24905,0.27491 -0.27491,0.24905 -1.22268,1.00252 -0.29677,0.21989 -0.3169,0.18974 -1.38171,0.73768 -0.33222,0.15703 -0.34595,0.12387 -1.49863,0.4554 -0.35825,0.0899 -0.36534,0.0544 -1.57344,0.15568 -0.3705,0.0183 -0.3705,-0.0183 -1.57344,-0.15568 -0.36534,-0.0544 -0.35825,-0.0899 -1.49863,-0.4554 -0.34595,-0.12388 -0.33222,-0.15703 -1.38171,-0.73767 -0.3169,-0.18974 -0.29677,-0.21989 -1.22267,-1.00252 -0.27492,-0.24905 -0.24905,-0.27491 -1.00251,-1.22268 -0.2199,-0.29677 -0.18973,-0.3169 -0.73768,-1.38171 -0.15703,-0.33222 -0.12388,-0.34595 -0.4554,-1.49863 -0.0899,-0.35825 -0.0544,-0.36534 -0.15567,-1.57344 -0.0183,-0.37398 0.019,-0.37395 0.1631,-1.61786 m 13.99291,1.7063 11.23413,1.11149 m -12.44206,1.2077 5.31676,9.95857 m -7.68508,-9.96692 -5.31677,9.95857 M 226.8481,104.12229 215.61605,102.99"
         inkstitch:satin_column="true" />
      <path
         id="path20"
         style="fill:none;stroke:#ad6b21;stroke-width:1px"
         transform="scale(0.264583)"
         d="m 224.85279,104.40503 0.35792,-1.15302 0.39002,-0.71856 0.51943,-0.62956 0.62956,-0.51944 0.71857,-0.39002 0.7915,-0.2457 0.8673,-0.0874 0.83055,0.0822 0.79109,0.24039 0.72938,0.38941 0.64811,0.5314 0.53141,0.64811 0.3894,0.72938 0.2404,0.7911 0.0824,0.83306 0.0368,0.37148 0.0462,-0.005 -0.0181,-0.36582 m -15.76964,-2.73356 0.46776,-1.50689 0.12662,-0.34679 0.15998,-0.332721 0.74015,-1.363624 0.18789,-0.309614 0.21677,-0.290119 0.98026,-1.188081 0.24173,-0.266003 0.266,-0.241726 1.18808,-0.980257 0.29012,-0.216776 0.30961,-0.187882 1.36363,-0.740151 0.33272,-0.159988 0.34679,-0.126614 1.50689,-0.467764 0.36531,-0.09361 0.37284,-0.05658 1.61787,-0.163095 0.37395,-0.01897 0.37398,0.01828 1.57344,0.155675 0.36534,0.05436 0.35825,0.08992 1.49863,0.455398 0.34595,0.123877 0.33222,0.15703 1.38171,0.737677 0.3169,0.189738 0.29677,0.219893 1.22267,1.002514 0.27491,0.249053 0.24906,0.274912 1.00251,1.222672 0.2199,0.296772 0.18973,0.3169 0.73768,1.381704 0.15703,0.33222 0.12388,0.34595 0.4554,1.49863 0.0899,0.35825 0.0544,0.36534 0.15567,1.57344 0.0183,0.37039 m -14.12494,-0.3943 -10.78148,-3.34675 m 12.35039,1.52207 -3.34676,-10.781472 m 5.61292,11.199672 7.15778,-8.729671"
         inkstitch:satin_column="true" />
      <g
         id="command_group8"
         inkscape:label="Ink/Stitch Command: Trim thread after sewing this object"
         transform="matrix(0.264583,0,0,0.264583,16.9577,2.93577)">
        <path
           id="command_connector8"
           d="m 223.90161,61.993801 -50.7925,21.995223"
           style="fill:none;stroke:#000000;stroke-width:1px;stroke-opacity:0.5"
           inkscape:connection-start="#command_use9555"
           inkscape:connection-end="#path20"
           inkscape:connector-type="polyline"
           inkscape:label="connector"
           inkscape:connector-curvature="0" />
        <use
           id="command_use9555"
           xlink:href="#inkstitch_trim"
           height="100%"
           width="100%"
           x="223.89903"
           y="61.957954"
           inkscape:label="command marker" />
      </g>
    </g>
    <path
       id="path6"
       style="display:inline;fill:none;stroke:#ad6b21;stroke-width:0.264583px"
       d="M 41.221759,83.712702 V 39.392579 l -0.0051,-0.100261 -0.01513,-0.09924 -0.02506,-0.09721 -0.03471,-0.0942 -0.04402,-0.09022 -0.05288,-0.08533 -0.06121,-0.07957 -0.06891,-0.073 -6.950024,-6.656363 -2.16825,-2.076632 V 18.152603 M 39.23051,83.712702 V 39.817621 l -7.100627,-6.800601 -2.017644,-1.932392 -0.06891,-0.073 -0.06121,-0.07957 -0.05288,-0.08533 -0.04402,-0.09022 -0.03471,-0.0942 -0.02506,-0.09721 -0.01513,-0.09924 -0.0051,-0.100261 V 18.152603 m 11.914299,24.264813 h -2.986872 m 0.06778,-6.458153 -2.065972,2.157119 m -2.577208,-6.604109 -2.065973,2.157119 m 0.203007,-6.515885 h -2.986872"
       inkstitch:satin_column="true"
       inkscape:label="trunk_left"
       sodipodi:nodetypes="cccccccccccccccccccccccccccccccccc" />
    <g
       id="command_group12"
       inkscape:label="Ink/Stitch Command: Trim thread after sewing this object"
       transform="matrix(0.264583,0,0,0.264583,14.7711,27.9021)">
      <path
         id="command_connector12"
         d="M 118.09078,37.455342 99.971121,60.091881"
         style="fill:none;stroke:#000000;stroke-width:1px;stroke-opacity:0.5"
         inkscape:connection-start="#command_use2042"
         inkscape:connection-end="#path6"
         inkscape:connector-type="polyline"
         inkscape:label="connector"
         inkscape:connector-curvature="0" />
      <use
         id="command_use2042"
         xlink:href="#inkstitch_trim"
         height="100%"
         width="100%"
         x="118.0882"
         y="37.419495"
         inkscape:label="command marker" />
    </g>
    <g
       id="g4987"
       inkscape:label="pad_center_left">
      <path
         id="path12"
         style="fill:none;stroke:#ad6b21;stroke-width:1px"
         transform="scale(0.264583)"
         d="m 121.5208,57.366846 -0.12513,1.241233 -0.24569,0.791493 -0.39003,0.718569 -0.51943,0.629559 -0.62956,0.519433 -0.71857,0.390026 -0.79149,0.245694 -0.8638,0.08708 -0.86381,-0.08708 -0.79149,-0.245694 -0.71857,-0.390026 -0.62956,-0.519433 -0.51943,-0.629559 -0.39003,-0.718569 -0.24569,-0.791493 -0.0874,-0.867304 0.11867,-1.199446 m 15.89907,1.580376 -0.16309,1.617865 -0.0566,0.372846 -0.0936,0.365311 -0.46777,1.506885 -0.12661,0.346796 -0.15999,0.33272 -0.74015,1.363624 -0.18788,0.309614 -0.21678,0.290119 -0.98025,1.188081 -0.24173,0.266002 -0.266,0.241727 -1.18808,0.980257 -0.29012,0.216776 -0.30962,0.187882 -1.36362,0.740151 -0.33272,0.159988 -0.3468,0.126614 -1.50688,0.467764 -0.36531,0.09361 -0.37285,0.05658 -1.61786,0.163095 -0.37743,0.01898 -0.37743,-0.01898 -1.61787,-0.163095 -0.37285,-0.05658 -0.36531,-0.09361 -1.50688,-0.467764 -0.3468,-0.126614 -0.33272,-0.159988 -1.36362,-0.740151 -0.30961,-0.187882 -0.29012,-0.216776 -1.18808,-0.980257 -0.26601,-0.241727 -0.24172,-0.266002 -0.98026,-1.188081 -0.21678,-0.290119 -0.18788,-0.309614 -0.74015,-1.363624 -0.15999,-0.33272 -0.12661,-0.346796 -0.46777,-1.506885 -0.0936,-0.365311 -0.0566,-0.372846 -0.16309,-1.617865 -0.019,-0.373947 0.0183,-0.373981 0.15567,-1.573445 m 14.00161,1.644089 11.23205,1.132288 m -12.46143,1.210961 5.3853,9.921669 m -7.67453,-9.909882 -5.3853,9.921669 m 4.23772,-12.728209 -11.23412,-1.111495"
         inkstitch:satin_column="true" />
      <g
         id="command_group13"
         inkscape:label="Ink/Stitch Command: Trim thread after sewing this object"
         transform="scale(0.264583)" />
      <path
         id="path13"
         style="fill:none;stroke:#ad6b21;stroke-width:1px"
         transform="scale(0.264583)"
         d="m 112.96548,57.264914 0.34818,-1.145783 0.3894,-0.729375 0.53141,-0.64811 0.64811,-0.53141 0.72937,-0.389405 0.7911,-0.240395 0.83405,-0.08252 0.83404,0.08252 0.7911,0.240395 0.72937,0.389405 0.64811,0.53141 0.53141,0.64811 0.38941,0.729375 0.24039,0.791097 0.0824,0.83301 0.0368,0.371535 0.0462,-0.0046 -0.0181,-0.365924 m -15.78366,-2.667528 0.4554,-1.498632 0.12388,-0.345951 0.15702,-0.332219 0.73768,-1.381708 0.18974,-0.316901 0.21989,-0.296772 1.00252,-1.222673 0.24905,-0.274911 0.27491,-0.249054 1.22267,-1.002514 0.29678,-0.219893 0.3169,-0.189738 1.3817,-0.737678 0.33222,-0.15703 0.34595,-0.123878 1.49864,-0.455398 0.35824,-0.08992 0.36534,-0.05436 1.57345,-0.155676 0.3705,-0.01828 0.3705,0.01828 1.57344,0.155676 0.36534,0.05436 0.35825,0.08992 1.49863,0.455398 0.34595,0.123878 0.33222,0.15703 1.38171,0.737678 0.3169,0.189738 0.29677,0.219893 1.22267,1.002514 0.27491,0.249054 0.24906,0.274911 1.00251,1.222673 0.21989,0.296772 0.18974,0.316901 0.73768,1.381708 0.15703,0.332219 0.12387,0.345951 0.4554,1.498632 0.0899,0.358248 0.0544,0.365337 0.15568,1.573445 0.0183,0.370498 m -14.12488,-0.38387 -10.80129,-3.282249 m 12.31135,1.465737 -3.28226,-10.801288 m 5.59719,11.192578 7.15778,-8.729673"
         inkstitch:satin_column="true" />
      <g
         id="command_group14"
         inkscape:label="Ink/Stitch Command: Trim thread after sewing this object"
         transform="matrix(0.264583,0,0,0.264583,-22.624,-3.64323)">
        <path
           id="command_connector14"
           d="m 153.56259,34.766913 42.72998,26.88421"
           style="fill:none;stroke:#000000;stroke-width:1px;stroke-opacity:0.5"
           inkscape:connection-start="#command_use6889"
           inkscape:connection-end="#path13"
           inkscape:connector-type="polyline"
           inkscape:label="connector"
           inkscape:connector-curvature="0" />
        <use
           id="command_use6889"
           xlink:href="#inkstitch_trim"
           height="100%"
           width="100%"
           x="106.17158"
           y="15.595914"
           inkscape:label="command marker"
           transform="translate(47.388431,19.135152)" />
      </g>
    </g>
  </g>
  <g
     id="layer4"
     inkscape:label="Ground"
     transform="translate(3.66667e-08, 5.82083)">
    <path
       id="path3"
       style="fill:none;stroke:#ad6b21;stroke-width:1px"
       transform="scale(0.264583, 0.264583)"
       d="m 144.83236,326.42206 h 37.12825 m -37.12825,-7.52599 h 37.12825 m -18.56413,9.40748 v -11.28897"
       inkstitch:satin_column="true"
       inkscape:label="ground3" />
    <g
       id="command_group1"
       inkscape:label="Ink/Stitch Command: Trim thread after sewing this object"
       transform="matrix(0.264583 0 0 0.264583 22.7904 8.9933)">
      <path
         id="command_connector1"
         d="m 153.89661,288.62584 -76.637178,0.0428"
         style="fill:none;stroke:#000000;stroke-width:1px;stroke-opacity:0.5"
         inkscape:connection-start="#command_use1290"
         inkscape:connection-end="#path3"
         inkscape:connector-type="polyline"
         inkscape:label="connector"
         inkscape:connector-curvature="0" />
      <use
         id="command_use1290"
         xlink:href="#inkstitch_trim"
         height="100%"
         width="100%"
         x="153.89403"
         y="288.59"
         inkscape:label="command marker" />
    </g>
    <path
       id="path2"
       style="fill:none;stroke:#ad6b21;stroke-width:1px"
       transform="scale(0.264583, 0.264583)"
       d="m 131.28553,312.37368 h 64.22185 m -64.22185,-7.52598 h 64.22185 m -32.11093,9.40748 V 302.9662"
       inkstitch:satin_column="true"
       inkscape:label="ground2" />
    <g
       id="command_group2"
       inkscape:label="Ink/Stitch Command: Trim thread after sewing this object"
       transform="matrix(0.264583 0 0 0.264583 40.3826 8.50767)">
      <path
         id="command_connector2"
         d="M 148.48219,274.8832 10.769113,276.45568"
         style="fill:none;stroke:#000000;stroke-width:1px;stroke-opacity:0.5"
         inkscape:connection-start="#command_use6906"
         inkscape:connection-end="#path2"
         inkscape:connector-type="polyline"
         inkscape:label="connector"
         inkscape:connector-curvature="0" />
      <use
         id="command_use6906"
         xlink:href="#inkstitch_trim"
         height="100%"
         width="100%"
         x="148.47961"
         y="274.84735"
         inkscape:label="command marker" />
    </g>
    <path
       id="path9"
       style="fill:none;stroke:#ad6b21;stroke-width:1px"
       transform="scale(0.264583, 0.264583)"
       d="m 119.74548,298.82662 h 89.30862 m -89.30862,-7.52599 h 89.30862 m -44.65431,9.40749 v -11.28898"
       inkstitch:satin_column="true"
       inkscape:label="ground1" />
    <g
       id="command_group3"
       inkscape:label="Ink/Stitch Command: Trim thread after sewing this object"
       transform="matrix(0.264583 0 0 0.264583 31.8875 9.04312)">
      <path
         id="command_connector3"
         d="m 155.98895,260.67247 -112.108997,0.2124"
         style="fill:none;stroke:#000000;stroke-width:1px;stroke-opacity:0.5"
         inkscape:connection-start="#command_use1305"
         inkscape:connection-end="#path9"
         inkscape:connector-type="polyline"
         inkscape:label="connector"
         inkscape:connector-curvature="0" />
      <use
         id="command_use1305"
         xlink:href="#inkstitch_trim"
         height="100%"
         width="100%"
         x="155.98637"
         y="260.63663"
         inkscape:label="command marker" />
    </g>
  </g>
  <g
     id="layer6"
     inkscape:label="Canopy">
    <path
       id="path21"
       style="display:inline;fill:none;stroke:#1c5d00;stroke-width:1.00158;stroke-miterlimit:4;stroke-dasharray:none"
       transform="scale(0.264583, 0.264583)"
       d="m 89.701351,137.52011 -0.757434,-0.009 -2.024014,-0.14367 -2.952934,-0.46718 -1.52281,-0.37438 -1.586353,-0.51362 -1.523575,-0.64371 -1.399062,-0.7718 -1.226663,-0.89281 -1.029085,-1.01098 -0.831203,-1.14931 -0.641614,-1.34989 -0.436158,-1.65306 -0.175835,-2.16135 0.09702,-2.399 0.274601,-2.12067 0.405763,-1.76531 0.496709,-1.44455 0.552174,-1.16381 0.579386,-0.92618 0.58636,-0.73072 0.49163,-0.48569 1.220513,-0.87117 0.904971,-0.41569 0.552098,-0.15729 0.174318,-0.029 0.474704,-0.10295 0.462524,-0.14837 0.44601,-0.1924 0.425315,-0.23462 0.400633,-0.27466 0.372197,-0.31211 0.340273,-0.34664 0.305158,-0.37791 0.267185,-0.40566 0.226706,-0.42959 0.184103,-0.44949 0.139775,-0.4652 0.09414,-0.47653 0.04761,-0.4834 6.48e-4,-0.48574 -0.04633,-0.48352 -0.09286,-0.47678 -0.138534,-0.46557 -0.182903,-0.44998 -0.22556,-0.4302 -0.266102,-0.40636 -0.304149,-0.37873 -0.369102,-0.41658 -0.878848,-1.23845 -0.372732,-0.68376 -0.330154,-0.80127 -0.207203,-0.79059 -0.08105,-0.88162 0.131801,-2.788436 0.306617,-2.572215 0.476442,-2.680855 0.06264,-0.49326 0.01351,-0.497037 -0.03575,-0.495934 -0.08467,-0.48996 -0.132745,-0.479174 -0.179521,-0.463682 -0.224534,-0.443636 -0.267342,-0.419234 -0.307525,-0.390714 -0.344687,-0.358357 -0.378464,-0.322481 -0.408524,-0.283437 -0.434573,-0.24161 -0.456353,-0.19741 -0.473651,-0.151272 -1.607164,-0.42679 -1.3765,-0.543112 -1.596904,-0.880275 -1.640196,-1.302524 -0.595999,-0.64383 -0.598391,-0.822186 -0.513535,-0.935108 -0.418525,-1.081106 -0.304206,-1.270344 -0.16128,-1.545451 0.0068,-1.777027 0.158209,-1.665197 0.288516,-1.514876 0.40079,-1.378608 0.497946,-1.255809 0.53354,-1.048746 1.440477,-2.087814 1.570101,-1.617099 1.653982,-1.25368 1.588374,-0.884215 1.28912,-0.497381 1.52219,-0.301666 1.463374,-0.148102 2.688785,0.05682 1.621145,0.258776 0.55558,0.147112 0.476229,0.101655 0.483841,0.05501 0.486895,0.0078 0.485363,-0.03939 0.479258,-0.08626 0.468639,-0.132309 0.453606,-0.177115 0.4343,-0.220255 0.410902,-0.261318 0.383635,-0.29992 0.352754,-0.335698 0.31855,-0.368313 0.281344,-0.397459 0.24149,-0.42286 0.19936,-0.444279 0.155353,-0.461512 0.109881,-0.474399 0.06337,-0.482817 0.01627,-0.486686 -0.03098,-0.485971 -0.07795,-0.480679 -0.451374,-2.1249 -0.2006,-2.045574 0.06345,-2.665283 0.175105,-1.282269 0.316207,-1.382891 0.463525,-1.376852 0.62994,-1.354536 0.8211,-1.323826 1.046868,-1.28993 1.319065,-1.252313 1.645469,-1.202483 1.261467,-0.700841 1.30046,-0.592719 2.88567,-0.959422 2.73795,-0.548413 2.54572,-0.244471 2.20223,-0.02587 1.6762,0.09663 1.61582,0.205511 0.50585,0.03848 0.50716,-0.01279 0.50327,-0.06395 0.49424,-0.11444 0.48015,-0.163764 0.46117,-0.211415 0.43746,-0.256904 0.40928,-0.299767 0.37691,-0.339564 0.3407,-0.375891 0.301,-0.408375 0.25822,-0.436682 0.2128,-0.460526 0.16521,-0.479661 0.15621,-0.540933 0.56174,-1.488912 1.15121,-2.266627 0.74523,-1.166042 0.95098,-1.258279 1.12718,-1.247418 1.31515,-1.198878 1.51965,-1.116766 1.74782,-1.00338 2.00788,-0.857601 2.30667,-0.674252 2.64728,-0.445244 3.16002,-0.16921 h 51.56971 l 0.65506,0.125504 1.04077,0.282323 1.30289,0.467046 1.37472,0.654967 1.29802,0.836507 1.10687,0.999081 0.97256,1.312848 1.90364,3.643443 1.21565,2.925675 0.87274,2.79255 0.17129,0.465801 0.21648,0.446601 0.25953,0.423028 0.30006,0.395319 0.33765,0.36374 0.37193,0.328602 0.40257,0.29025 0.42928,0.249057 0.45179,0.205428 0.46987,0.159788 0.48336,0.112585 0.49212,0.06428 0.49606,0.01535 26.36682,-0.489173 1.10759,0.30554 1.61947,0.623395 1.85382,0.959419 1.86292,1.347563 0.67936,0.656414 0.64801,0.788023 0.53201,0.849643 0.41415,0.931581 0.29087,1.053844 0.16183,1.358453 0.0807,3.406903 -0.31274,2.983783 -0.58786,2.638843 -0.74498,2.24813 -0.77871,1.804107 -0.66811,1.274456 -0.74277,1.183035 -0.24589,0.439096 -0.20066,0.46152 -0.15342,0.479301 -0.10464,0.492258 -0.0548,0.500264 -0.004,0.503237 0.046,0.501146 0.096,0.494014 0.14501,0.481912 0.19255,0.464961 0.23817,0.443332 0.28138,0.417244 0.54765,0.730207 1.2117,1.827515 1.25952,2.402814 0.3464,0.935478 0.15933,0.725993 0.0166,0.717716 -0.12374,0.959072 -0.72511,2.669351 -0.82778,2.118681 -0.40009,0.867767 -0.18086,0.447766 -0.13697,0.46308 -0.0918,0.474103 -0.0458,0.480734 6.2e-4,0.482912 0.047,0.480615 0.093,0.473868 0.13815,0.462729 0.182,0.447305 0.22415,0.427736 0.26424,0.404206 0.30187,0.37693 0.33672,0.346163 0.36843,0.312189 0.39674,0.275323 0.42137,0.235907 0.44209,0.194304 0.45873,0.150903 0.47111,0.106103 0.47913,0.06032 0.48271,0.01398 0.48182,-0.03249 1.80934,-0.209873 1.79577,-0.09901 2.17762,0.02572 2.26414,0.23306 2.1947,0.513224 0.78538,0.294107 0.72689,0.366972 0.56813,0.386843 0.40465,0.377062 0.34342,0.461838 0.37858,0.734308 0.38214,1.039577 0.32026,1.213927 0.49401,3.146513 0.20484,3.302908 -0.005,3.164507 -0.12504,2.64091 -0.22631,2.57222 -0.0189,0.50392 0.0318,0.50326 0.0821,0.49754 0.13166,0.48678 0.17986,0.4711 0.22624,0.45067 0.27034,0.42568 0.3117,0.3964 0.34991,0.36311 0.3846,0.32615 0.41539,0.28589 0.44199,0.24276 1.94466,0.94414 1.73308,1.06013 2.00782,1.55355 0.85538,0.81899 0.82416,0.93948 0.70607,0.99192 0.56676,1.03395 0.41603,1.07728 0.2579,1.14155 0.0841,1.24875 -0.13168,1.46931 -0.77477,3.50822 -0.97289,2.73759 -1.06873,1.98656 -1.09313,1.37055 -1.1022,0.92542 -1.16843,0.63277 -1.31991,0.4225 -1.7354,0.26482 -2.29896,0.25702 -3.06376,0.12334 -7.47444,-0.0458 -9.38613,-0.37285 m -151.781571,10.53288 -0.905472,-0.0107 -0.295716,-0.0122 -2.387154,-0.16944 -0.428816,-0.049 -3.374942,-0.53396 -0.4138,-0.0834 -1.90355,-0.46799 -0.34763,-0.0989 -1.965287,-0.6363 -0.407228,-0.15163 -1.965286,-0.83033 -0.47083,-0.22856 -1.90355,-1.05011 -0.52901,-0.33657 -1.780077,-1.2956 -0.29062,-0.22836 -0.273021,-0.24914 -1.594866,-1.56682 -0.288103,-0.30787 -0.261235,-0.33098 -1.347919,-1.86376 -0.25094,-0.38258 -0.215047,-0.40384 -1.039235,-2.18644 -0.180207,-0.4295 -0.139602,-0.44435 -0.668814,-2.53485 -0.09406,-0.43328 -0.05544,-0.43989 -0.236658,-2.90898 -0.01242,-0.60959 0.118328,-2.92577 0.03744,-0.44155 0.334405,-2.58254 0.08597,-0.47965 0.519614,-2.26062 0.145147,-0.50752 0.673955,-1.96002 0.211672,-0.51923 0.797428,-1.68073 0.279402,-0.51023 0.890032,-1.42276 0.340379,-0.47919 0.951769,-1.1861 0.387081,-0.42919 0.982637,-0.97076 0.295374,-0.26941 0.315886,-0.24504 0.90879,-0.64867 -0.327945,-0.79592 -0.214435,-0.6394 -0.397841,-1.51796 -0.08816,-0.4034 -0.05469,-0.40929 -0.150905,-1.64144 -0.01547,-0.69622 0.156743,-3.31611 0.02968,-0.356991 0.203037,-1.703276 -0.05252,-0.02072 -0.580644,-0.273215 -2.247011,-1.23864 L 67.732967,93.529771 67.393652,93.28273 65.123122,91.47964 64.83149,91.229899 64.560587,90.958803 63.50286,89.81619 63.128108,89.360268 62.168129,88.041263 61.826994,87.503944 60.999307,85.996788 60.718154,85.39299 60.057302,83.685923 59.856878,83.04302 l -0.459474,-1.918737 -0.110852,-0.647679 -0.223554,-2.142167 -0.02706,-0.539941 0.0087,-2.275934 0.02246,-0.455391 0.201991,-2.126 0.0661,-0.464146 0.376911,-1.979007 0.110876,-0.46195 0.533459,-1.834953 0.153802,-0.448717 0.671632,-1.693839 0.192167,-0.425669 0.791431,-1.555665 0.342122,-0.574281 1.868761,-2.708567 0.251566,-0.333943 0.278496,-0.311838 2.127468,-2.191149 0.274928,-0.262488 0.294011,-0.240921 2.239182,-1.697248 0.590379,-0.385342 2.203901,-1.226867 0.634331,-0.297155 2.021629,-0.780004 0.41016,-0.138241 0.420548,-0.102376 2.181366,-0.4323 0.470156,-0.07022 2.004981,-0.202916 0.611217,-0.02438 0.472653,0.01 0.06562,-2.756624 0.04472,-0.559459 0.243388,-1.78229 0.0801,-0.439519 0.421983,-1.845495 0.136001,-0.482454 0.632183,-1.877831 0.20568,-0.514922 0.873986,-1.879296 0.285648,-0.528842 1.147392,-1.849895 0.367977,-0.517115 1.452402,-1.789623 0.441271,-0.476956 1.789016,-1.698482 0.494179,-0.412258 2.157234,-1.576473 0.523649,-0.334979 1.708045,-0.94895 0.355858,-0.179592 1.725683,-0.786526 0.497891,-0.195589 3.433722,-1.141637 0.59756,-0.158536 3.2926,-0.65951 0.50578,-0.07474 3.01038,-0.289094 0.42069,-0.02263 2.58704,-0.03039 0.34771,0.008 0.1939,0.01118 1.18227,-2.327785 0.24576,-0.429924 0.98485,-1.540964 0.22492,-0.32323 1.2024,-1.59094 0.28007,-0.33865 1.43758,-1.590941 0.34258,-0.344077 1.69041,-1.540964 0.40896,-0.33511 1.96087,-1.441009 0.47317,-0.308283 2.24898,-1.291078 0.52721,-0.262781 2.55471,-1.091169 0.56308,-0.201733 2.8781,-0.841283 0.57551,-0.132028 3.21912,-0.5414198 0.56389,-0.062316 3.57778,-0.1915792 0.26828,-0.00718 h 52.18025 l 0.47417,0.022457 0.46993,0.06717 1.3092,0.25083 0.36943,0.085369 1.41601,0.38411 0.37953,0.119293 1.72763,0.619303 0.46496,0.193526 1.89226,0.901544 0.55988,0.312099 1.9099,1.230833 0.33193,0.233431 0.31198,0.259491 1.78056,1.60717 0.35327,0.352279 0.31653,0.385622 1.50423,2.030555 0.22061,0.323464 0.19471,0.339682 2.18729,4.186307 0.18635,0.398271 1.32532,3.189616 23.37028,-0.43358 0.4808,0.01414 0.47723,0.06012 0.46929,0.105539 2.04611,0.564442 0.46819,0.154274 2.10785,0.811391 0.50368,0.226452 2.43124,1.25825 0.32452,0.183553 0.31,0.207144 2.45476,1.775669 0.54571,0.457075 1.14249,1.103916 0.38895,0.421382 1.03592,1.25973 0.37718,0.524092 0.89188,1.424366 0.3322,0.624508 0.71034,1.597819 0.139,0.346952 0.1128,0.356336 0.49132,1.780094 0.0868,0.36796 0.0588,0.373449 0.23482,1.971188 0.0338,0.474671 0.094,3.966802 -0.0259,0.641859 -0.37634,3.590517 -0.0927,0.567947 -0.70556,3.16719 -0.13464,0.48728 -0.89368,2.696823 -0.1561,0.410066 -0.94069,2.179415 -0.16281,0.341243 -0.2047,0.390478 0.31901,0.481131 0.26215,0.443204 1.52869,2.91632 0.26129,0.587107 0.57914,1.564004 0.19559,0.666751 0.33808,1.540494 0.0808,0.477134 0.0345,0.482701 0.0365,1.583563 -0.006,0.379593 -0.0343,0.378081 -0.21644,1.677644 -0.13422,0.673289 -0.0412,0.151697 0.0323,0.0019 2.80851,0.289095 0.62872,0.105432 2.82027,0.65951 0.6171,0.186852 1.34472,0.503571 0.50162,0.219761 1.26387,0.638067 0.56272,0.331719 1.1551,0.786527 0.30734,0.226865 0.28919,0.249592 1.0184,0.94895 0.31824,0.324695 0.28754,0.35217 0.86067,1.157433 0.23087,0.338517 0.20248,0.356226 0.70926,1.375719 0.2497,0.568073 0.57108,1.553583 0.14209,0.451172 0.44613,1.691023 0.10527,0.501698 0.57034,3.632672 0.0511,0.467632 0.22931,3.697353 0.01,0.319167 -0.006,3.438641 -0.006,0.22869 -0.11183,2.36181 1.68702,1.03196 0.45223,0.31189 2.43419,1.88345 0.39951,0.34415 1.20387,1.15266 0.30184,0.3153 1.13625,1.29524 0.31579,0.39912 1.02454,1.4393 0.31218,0.49792 0.86872,1.58482 0.28073,0.60416 0.6688,1.73182 0.21356,0.70187 0.42479,1.88027 0.0709,0.38214 0.0411,0.38649 0.13669,2.03021 0.011,0.39262 -0.0197,0.39228 -0.19553,2.18161 -0.098,0.6341 -0.91132,4.12655 -0.17162,0.59815 -1.2053,3.39159 -0.14133,0.35435 -0.16784,0.3426 -1.46402,2.72131 -0.23111,0.38687 -0.26489,0.36457 -1.68744,2.11571 -0.33035,0.37435 -0.36592,0.33966 -1.8756,1.57478 -0.40408,0.30586 -0.43288,0.26353 -2.02847,1.09852 -0.4213,0.20336 -0.43841,0.16323 -2.14607,0.68695 -0.38276,0.10602 -0.38995,0.0754 -2.22839,0.34005 -0.19941,0.0264 -2.57628,0.28803 -0.35564,0.027 -3.35829,0.13519 -0.23256,0.004 -7.67501,-0.047 -0.16841,-0.004 -9.4703,-0.37619 M 76.147781,126.82448 61.14532,128.04499 M 83.506792,96.007157 68.670379,93.468578 M 71.85934,73.757635 57.073095,70.941522 M 97.848119,42.997286 87.48452,32.081274 m 77.51208,-9.95994 V 7.0693067 m 69.39467,32.3284973 5.4073,-14.047228 m 0.21138,46.697198 13.3315,-6.98817 m 4.4495,28.000541 14.55404,-3.839693 m -2.50738,37.873878 14.69787,3.24593"
       inkstitch:satin_column="true"
       inkscape:label="Canopy" />
    <g
       id="command_group7"
       inkscape:label="Ink/Stitch Command: Trim thread after sewing this object"
       transform="scale(0.264583, 0.264583)">
      <path
         id="command_connector7"
         d="m 162.67275,-22.780578 2.62457,32.358596"
         style="fill:none;stroke:#000000;stroke-width:1px;stroke-opacity:0.5"
         inkscape:connection-start="#command_use1902"
         inkscape:connection-end="#path21"
         inkscape:connector-type="polyline"
         inkscape:label="connector"
         inkscape:connector-curvature="0" />
      <use
         id="command_use1902"
         xlink:href="#inkstitch_trim"
         height="100%"
         width="100%"
         x="162.67017"
         y="-22.816425"
         inkscape:label="command marker" />
    </g>
  </g>
</svg>
